<svg xmlns="http://www.w3.org/2000/svg" viewBox="0 0 1200 680" width="1200" height="680" role="img" aria-label="LOAD FACTOR IN A LEVEL TURN">
<defs>
  <marker id="aDark" markerUnits="userSpaceOnUse" markerWidth="16" markerHeight="16" refX="13" refY="8" orient="auto"><path d="M0,1 L15,8 L0,15 z" fill="#101827"/></marker>
  <marker id="aBlue" markerUnits="userSpaceOnUse" markerWidth="18" markerHeight="18" refX="15" refY="9" orient="auto"><path d="M0,1 L17,9 L0,17 z" fill="#1e88e5"/></marker>
  <marker id="aRed" markerUnits="userSpaceOnUse" markerWidth="20" markerHeight="20" refX="17" refY="10" orient="auto"><path d="M0,1 L19,10 L0,19 z" fill="#dc2626"/></marker>
  <marker id="aRedS" markerUnits="userSpaceOnUse" markerWidth="12" markerHeight="12" refX="10" refY="6" orient="auto"><path d="M0,0.5 L11,6 L0,11.5 z" fill="#dc2626"/></marker>
</defs>
<rect width="1200" height="680" fill="#ffffff"/>
<rect width="1200" height="112" fill="#06111f"/>
<text x="600" y="34" text-anchor="middle" font-family="Arial,Helvetica,sans-serif" font-size="17" font-weight="700" letter-spacing="3.2" fill="#f4b400">PILOTVAULT AIRCRAFT TECHNICAL &amp; GENERAL</text>
<text x="600" y="79" text-anchor="middle" font-family="Arial,Helvetica,sans-serif" font-size="34" font-weight="800" fill="#ffffff">LOAD FACTOR IN A LEVEL TURN</text>
<rect x="0" y="108" width="1200" height="4" fill="#f4b400"/>
<rect x="28" y="130" width="1144" height="470" rx="10" fill="#ffffff" stroke="#d7e0ea" stroke-width="2"/>
<rect x="40" y="142" width="710" height="444" rx="12" fill="#fff8e1" stroke="#f4b400" stroke-width="4"/>
<line x1="110.0" y1="520.0" x2="670.0" y2="520.0" stroke="#101827" stroke-width="2.5" stroke-linecap="round" marker-end="url(#aDark)"/>
<line x1="110.0" y1="520.0" x2="110.0" y2="200.0" stroke="#101827" stroke-width="2.5" stroke-linecap="round" marker-end="url(#aDark)"/>
<text x="670.0" y="548.0" text-anchor="end" font-family="Arial,Helvetica,sans-serif" font-size="13" font-weight="800" fill="#101827">ANGLE OF BANK</text>
<text x="84" y="360.0" text-anchor="middle" font-family="Arial,Helvetica,sans-serif" font-size="13" font-weight="800" fill="#101827" transform="rotate(-90 84 360.0)">LOAD FACTOR (g)</text>
<path d="M 110.0,520.0 L 117.0,520.0 L 124.0,520.0 L 131.0,519.9 L 138.0,519.8 L 145.0,519.7 L 152.0,519.6 L 159.0,519.5 L 166.0,519.3 L 173.0,519.2 L 180.0,519.0 L 187.0,518.8 L 194.0,518.5 L 201.0,518.2 L 208.0,518.0 L 215.0,517.6 L 222.0,517.3 L 229.0,517.0 L 236.0,516.6 L 243.0,516.2 L 250.0,515.7 L 257.0,515.3 L 264.0,514.8 L 271.0,514.2 L 278.0,513.7 L 285.0,513.1 L 292.0,512.5 L 299.0,511.8 L 306.0,511.2 L 313.0,510.4 L 320.0,509.7 L 327.0,508.9 L 334.0,508.1 L 341.0,507.2 L 348.0,506.3 L 355.0,505.3 L 362.0,504.3 L 369.0,503.2 L 376.0,502.1 L 383.0,500.9 L 390.0,499.6 L 397.0,498.3 L 404.0,497.0 L 411.0,495.5 L 418.0,494.0 L 425.0,492.4 L 432.0,490.7 L 439.0,488.9 L 446.0,487.0 L 453.0,485.0 L 460.0,483.0 L 467.0,480.7 L 474.0,478.4 L 481.0,475.9 L 488.0,473.2 L 495.0,470.4 L 502.0,467.4 L 509.0,464.3 L 516.0,460.9 L 523.0,457.2 L 530.0,453.3 L 537.0,449.2 L 544.0,444.7 L 551.0,439.8 L 558.0,434.6 L 565.0,428.9 L 572.0,422.8 L 579.0,416.0 L 586.0,408.7 L 593.0,400.6 L 600.0,391.7 L 607.0,381.9 L 614.0,370.9 L 621.0,358.6 L 628.0,344.8 L 635.0,329.1 L 642.0,311.1 L 649.0,290.3 L 656.0,266.0" fill="none" stroke="#dc2626" stroke-width="4" stroke-linecap="round" stroke-linejoin="round"/>
<circle cx="320.0" cy="509.7" r="6" fill="#f4b400" stroke="#101827" stroke-width="2"/>
<text x="310.0" y="497.7" text-anchor="end" font-family="Arial,Helvetica,sans-serif" font-size="14" font-weight="800" fill="#101827">30°: 1.15 g</text>
<text x="320.0" y="540.0" text-anchor="middle" font-family="Arial,Helvetica,sans-serif" font-size="12" font-weight="800" fill="#64748b">30°</text>
<circle cx="425.0" cy="492.4" r="6" fill="#f4b400" stroke="#101827" stroke-width="2"/>
<text x="415.0" y="480.4" text-anchor="end" font-family="Arial,Helvetica,sans-serif" font-size="14" font-weight="800" fill="#101827">45°: 1.41 g</text>
<text x="425.0" y="540.0" text-anchor="middle" font-family="Arial,Helvetica,sans-serif" font-size="12" font-weight="800" fill="#64748b">45°</text>
<circle cx="530.0" cy="453.3" r="6" fill="#f4b400" stroke="#101827" stroke-width="2"/>
<text x="520.0" y="441.3" text-anchor="end" font-family="Arial,Helvetica,sans-serif" font-size="14" font-weight="800" fill="#101827">60°: 2.00 g</text>
<text x="530.0" y="540.0" text-anchor="middle" font-family="Arial,Helvetica,sans-serif" font-size="12" font-weight="800" fill="#64748b">60°</text>
<text x="130.0" y="210.0" text-anchor="start" font-family="Arial,Helvetica,sans-serif" font-size="18" font-weight="800" fill="#b7860b">n = 1 / cos(bank)</text>
<rect x="770" y="146" width="378" height="138" rx="12" fill="#f8fafc" stroke="#cbd5e1" stroke-width="2"/>
<rect x="770" y="146" width="8" height="138" rx="4" fill="#f4b400"/>
<text x="796.0" y="180.0" text-anchor="start" font-family="Arial,Helvetica,sans-serif" font-size="19" font-weight="800" fill="#101827">DEPENDS ON BANK</text>
<text x="796.0" y="212.0" text-anchor="start" font-family="Arial,Helvetica,sans-serif" font-size="17" font-weight="400" fill="#334155">In a level, coordinated turn</text>
<text x="796.0" y="237.0" text-anchor="start" font-family="Arial,Helvetica,sans-serif" font-size="17" font-weight="400" fill="#334155">the load factor depends only</text>
<text x="796.0" y="262.0" text-anchor="start" font-family="Arial,Helvetica,sans-serif" font-size="17" font-weight="400" fill="#334155">on the bank angle.</text>
<rect x="770" y="296" width="378" height="138" rx="12" fill="#f8fafc" stroke="#cbd5e1" stroke-width="2"/>
<rect x="770" y="296" width="8" height="138" rx="4" fill="#f4b400"/>
<text x="796.0" y="330.0" text-anchor="start" font-family="Arial,Helvetica,sans-serif" font-size="19" font-weight="800" fill="#101827">RISES STEEPLY</text>
<text x="796.0" y="362.0" text-anchor="start" font-family="Arial,Helvetica,sans-serif" font-size="17" font-weight="400" fill="#334155">60° of bank doubles the</text>
<text x="796.0" y="387.0" text-anchor="start" font-family="Arial,Helvetica,sans-serif" font-size="17" font-weight="400" fill="#334155">load: 2 g.</text>
<rect x="770" y="446" width="378" height="138" rx="12" fill="#f8fafc" stroke="#cbd5e1" stroke-width="2"/>
<rect x="770" y="446" width="8" height="138" rx="4" fill="#f4b400"/>
<text x="796.0" y="480.0" text-anchor="start" font-family="Arial,Helvetica,sans-serif" font-size="19" font-weight="800" fill="#101827">STALL SPEED</text>
<text x="796.0" y="512.0" text-anchor="start" font-family="Arial,Helvetica,sans-serif" font-size="17" font-weight="400" fill="#334155">Rises with the square root</text>
<text x="796.0" y="537.0" text-anchor="start" font-family="Arial,Helvetica,sans-serif" font-size="17" font-weight="400" fill="#334155">of the load factor.</text>
<text x="600" y="642" text-anchor="middle" font-family="Arial,Helvetica,sans-serif" font-size="19" font-weight="700" fill="#101827">In a level coordinated turn the extra load on the wings is a function of the angle of bank.</text>
</svg>
