<svg xmlns="http://www.w3.org/2000/svg" viewBox="0 0 1200 680" width="1200" height="680" role="img" aria-label="TURBOCHARGER WASTEGATE STUCK CLOSED">
<defs>
  <marker id="aDark" markerUnits="userSpaceOnUse" markerWidth="16" markerHeight="16" refX="13" refY="8" orient="auto"><path d="M0,1 L15,8 L0,15 z" fill="#101827"/></marker>
  <marker id="aBlue" markerUnits="userSpaceOnUse" markerWidth="18" markerHeight="18" refX="15" refY="9" orient="auto"><path d="M0,1 L17,9 L0,17 z" fill="#1e88e5"/></marker>
  <marker id="aRed" markerUnits="userSpaceOnUse" markerWidth="20" markerHeight="20" refX="17" refY="10" orient="auto"><path d="M0,1 L19,10 L0,19 z" fill="#dc2626"/></marker>
  <marker id="aRedS" markerUnits="userSpaceOnUse" markerWidth="12" markerHeight="12" refX="10" refY="6" orient="auto"><path d="M0,0.5 L11,6 L0,11.5 z" fill="#dc2626"/></marker>
</defs>
<rect width="1200" height="680" fill="#ffffff"/>
<rect width="1200" height="112" fill="#06111f"/>
<text x="600" y="34" text-anchor="middle" font-family="Arial,Helvetica,sans-serif" font-size="17" font-weight="700" letter-spacing="3.2" fill="#f4b400">PILOTVAULT AIRCRAFT TECHNICAL &amp; GENERAL</text>
<text x="600" y="79" text-anchor="middle" font-family="Arial,Helvetica,sans-serif" font-size="34" font-weight="800" fill="#ffffff">TURBOCHARGER WASTEGATE STUCK CLOSED</text>
<rect x="0" y="108" width="1200" height="4" fill="#f4b400"/>
<rect x="28" y="130" width="1144" height="470" rx="10" fill="#ffffff" stroke="#d7e0ea" stroke-width="2"/>
<rect x="40" y="142" width="710" height="444" rx="12" fill="#fff8e1" stroke="#f4b400" stroke-width="4"/>
<rect x="80" y="250" width="160" height="150" rx="14" fill="#cbd5e1" stroke="#101827" stroke-width="3"/>
<text x="160.0" y="332.0" text-anchor="middle" font-family="Arial,Helvetica,sans-serif" font-size="16" font-weight="800" fill="#101827">ENGINE</text>
<path d="M 240.0,360.0 L 420.0,360.0" fill="none" stroke="#f97316" stroke-width="16" stroke-linecap="round" stroke-linejoin="round"/>
<circle cx="460" cy="360" r="40" fill="#fed7aa" stroke="#101827" stroke-width="3"/>
<text x="460.0" y="366.0" text-anchor="middle" font-family="Arial,Helvetica,sans-serif" font-size="12" font-weight="800" fill="#101827">TURBINE</text>
<path d="M 460.0,400.0 L 460.0,520.0" fill="none" stroke="#f97316" stroke-width="16" stroke-linecap="round" stroke-linejoin="round"/>
<text x="476.0" y="520.0" text-anchor="start" font-family="Arial,Helvetica,sans-serif" font-size="12" font-weight="800" fill="#64748b">EXHAUST OUT</text>
<path d="M 340.0,360.0 L 340.0,470.0 L 452.0,470.0" fill="none" stroke="#fdba74" stroke-width="12" stroke-linecap="round" stroke-linejoin="round"/>
<rect x="318" y="410" width="44" height="30" rx="4" fill="#dc2626" stroke="#101827" stroke-width="2.5"/>
<path d="M 324,416 L 356,434 M 356,416 L 324,434" stroke="#ffffff" stroke-width="4"/>
<text x="300.0" y="430.0" text-anchor="end" font-family="Arial,Helvetica,sans-serif" font-size="13" font-weight="800" fill="#dc2626">WASTEGATE</text>
<text x="300.0" y="448.0" text-anchor="end" font-family="Arial,Helvetica,sans-serif" font-size="13" font-weight="800" fill="#dc2626">STUCK CLOSED</text>
<line x1="500.0" y1="360.0" x2="560.0" y2="360.0" stroke="#475569" stroke-width="8" stroke-linecap="round"/>
<circle cx="600" cy="360" r="46" fill="#bfdbfe" stroke="#101827" stroke-width="3"/>
<text x="600.0" y="365.0" text-anchor="middle" font-family="Arial,Helvetica,sans-serif" font-size="10" font-weight="800" fill="#101827">COMPRESSOR</text>
<path d="M 600.0,320.0 L 600.0,210.0 L 160.0,210.0 L 160.0,250.0" fill="none" stroke="#60a5fa" stroke-width="16" stroke-linecap="round" stroke-linejoin="round"/>
<text x="380.0" y="198.0" text-anchor="middle" font-family="Arial,Helvetica,sans-serif" font-size="13" font-weight="800" fill="#1d4ed8">BOOSTED AIR TO THE INTAKE</text>
<line x1="720.0" y1="360.0" x2="646.0" y2="360.0" stroke="#1e88e5" stroke-width="4" stroke-linecap="round" marker-end="url(#aBlue)"/>
<text x="700.0" y="340.0" text-anchor="middle" font-family="Arial,Helvetica,sans-serif" font-size="12" font-weight="800" fill="#1e88e5">AIR</text>
<text x="395.0" y="566.0" text-anchor="middle" font-family="Arial,Helvetica,sans-serif" font-size="15" font-weight="800" fill="#dc2626">All exhaust drives the turbine: boost cannot be limited.</text>
<rect x="770" y="146" width="378" height="138" rx="12" fill="#f8fafc" stroke="#cbd5e1" stroke-width="2"/>
<rect x="770" y="146" width="8" height="138" rx="4" fill="#f4b400"/>
<text x="796.0" y="180.0" text-anchor="start" font-family="Arial,Helvetica,sans-serif" font-size="19" font-weight="800" fill="#101827">NORMAL</text>
<text x="796.0" y="212.0" text-anchor="start" font-family="Arial,Helvetica,sans-serif" font-size="17" font-weight="400" fill="#334155">The wastegate bypasses</text>
<text x="796.0" y="237.0" text-anchor="start" font-family="Arial,Helvetica,sans-serif" font-size="17" font-weight="400" fill="#334155">exhaust round the turbine</text>
<text x="796.0" y="262.0" text-anchor="start" font-family="Arial,Helvetica,sans-serif" font-size="17" font-weight="400" fill="#334155">to limit boost.</text>
<rect x="770" y="296" width="378" height="138" rx="12" fill="#f8fafc" stroke="#cbd5e1" stroke-width="2"/>
<rect x="770" y="296" width="8" height="138" rx="4" fill="#f4b400"/>
<text x="796.0" y="330.0" text-anchor="start" font-family="Arial,Helvetica,sans-serif" font-size="19" font-weight="800" fill="#101827">STUCK CLOSED</text>
<text x="796.0" y="362.0" text-anchor="start" font-family="Arial,Helvetica,sans-serif" font-size="17" font-weight="400" fill="#334155">All exhaust passes through</text>
<text x="796.0" y="387.0" text-anchor="start" font-family="Arial,Helvetica,sans-serif" font-size="17" font-weight="400" fill="#334155">the turbine: boost keeps</text>
<text x="796.0" y="412.0" text-anchor="start" font-family="Arial,Helvetica,sans-serif" font-size="17" font-weight="400" fill="#334155">rising.</text>
<rect x="770" y="446" width="378" height="138" rx="12" fill="#f8fafc" stroke="#cbd5e1" stroke-width="2"/>
<rect x="770" y="446" width="8" height="138" rx="4" fill="#f4b400"/>
<text x="796.0" y="480.0" text-anchor="start" font-family="Arial,Helvetica,sans-serif" font-size="19" font-weight="800" fill="#101827">IN A DESCENT</text>
<text x="796.0" y="512.0" text-anchor="start" font-family="Arial,Helvetica,sans-serif" font-size="17" font-weight="400" fill="#334155">Denser air at full throttle</text>
<text x="796.0" y="537.0" text-anchor="start" font-family="Arial,Helvetica,sans-serif" font-size="17" font-weight="400" fill="#334155">can overboost: manifold</text>
<text x="796.0" y="562.0" text-anchor="start" font-family="Arial,Helvetica,sans-serif" font-size="17" font-weight="400" fill="#334155">pressure exceeds maximum.</text>
<text x="600" y="642" text-anchor="middle" font-family="Arial,Helvetica,sans-serif" font-size="19" font-weight="700" fill="#101827">With the wastegate stuck closed, manifold pressure may exceed the maximum permitted value.</text>
</svg>
