<svg xmlns="http://www.w3.org/2000/svg" viewBox="0 0 1200 720" role="img" aria-label="FLAPS AND CENTRE OF PRESSURE"><defs><marker id="b" markerWidth="10" markerHeight="10" refX="9" refY="3" orient="auto"><path d="M0 0L10 3L0 6Z" fill="#1f4e79"/></marker><marker id="g" markerWidth="10" markerHeight="10" refX="9" refY="3" orient="auto"><path d="M0 0L10 3L0 6Z" fill="#f4b400"/></marker><marker id="s" markerWidth="10" markerHeight="10" refX="9" refY="3" orient="auto"><path d="M0 0L10 3L0 6Z" fill="#64748b"/></marker><marker id="red" markerWidth="10" markerHeight="10" refX="9" refY="3" orient="auto"><path d="M0 0L10 3L0 6Z" fill="#b91c1c"/></marker></defs><rect width="1200" height="720" fill="#fff"/><rect width="1200" height="120" fill="#06111f"/><text x="600" y="38" text-anchor="middle" font-family="Arial" font-size="18" font-weight="700" letter-spacing="4" fill="#f4b400">PILOTVAULT PRINCIPLES OF FLIGHT</text><text x="600" y="82" text-anchor="middle" font-family="Arial" font-size="34" font-weight="800" fill="#fff">FLAPS AND CENTRE OF PRESSURE</text><rect x="45" y="150" width="1110" height="510" rx="14" fill="#fff" stroke="#d7e0ea"/>
<g font-family="Arial"><text x="330" y="225" text-anchor="middle" font-size="21" font-weight="800" fill="#06111f">FLAPS UP</text><path d="M120 405 C180 335 355 335 540 400 C445 425 260 440 120 405Z" fill="#f8fafc" stroke="#06111f" stroke-width="5"/><circle cx="350" cy="408" r="11" fill="#f4b400"/><text x="350" y="465" text-anchor="middle" font-size="19" font-weight="800" fill="#f4b400">CP</text>
<text x="860" y="225" text-anchor="middle" font-size="21" font-weight="800" fill="#06111f">FLAPS LOWERED</text><path d="M650 405 C710 335 875 335 1000 390 L1090 448 L1060 478 L965 420 C855 438 735 435 650 405Z" fill="#f8fafc" stroke="#06111f" stroke-width="5"/><path d="M995 397 L1090 448 L1060 478 L965 420Z" fill="#f4b400" stroke="#06111f" stroke-width="4"/><circle cx="920" cy="421" r="11" fill="#f4b400"/><text x="920" y="505" text-anchor="middle" font-size="19" font-weight="800" fill="#f4b400">CP GENERALLY MOVES AFT</text><line x1="815" y1="535" x2="930" y2="535" stroke="#1f4e79" stroke-width="6" marker-end="url(#b)"/></g><text x="600" y="690" text-anchor="middle" font-family="Arial" font-size="18" fill="#64748b">Lowering trailing-edge flaps changes camber and pressure distribution; the question bank treats the initial CP movement as aft.</text></svg>