<svg xmlns="http://www.w3.org/2000/svg" viewBox="0 0 1200 720" role="img" aria-label="Forces in a Steady Climb">
<defs>
 <marker id="arrB" markerWidth="10" markerHeight="10" refX="9" refY="3" orient="auto"><path d="M0 0L10 3L0 6Z" fill="#1f4e79"/></marker>
 <marker id="arrG" markerWidth="10" markerHeight="10" refX="9" refY="3" orient="auto"><path d="M0 0L10 3L0 6Z" fill="#f4b400"/></marker>
 <marker id="arrS" markerWidth="10" markerHeight="10" refX="9" refY="3" orient="auto"><path d="M0 0L10 3L0 6Z" fill="#64748b"/></marker>
 <marker id="arrR" markerWidth="10" markerHeight="10" refX="9" refY="3" orient="auto"><path d="M0 0L10 3L0 6Z" fill="#b91c1c"/></marker>
</defs>
<rect width="1200" height="720" fill="#fff"/>
<rect width="1200" height="120" fill="#06111f"/>
<text x="600" y="38" text-anchor="middle" font-family="Arial,sans-serif" font-size="18" font-weight="700" letter-spacing="4" fill="#f4b400">PILOTVAULT PRINCIPLES OF FLIGHT</text>
<text x="600" y="82" text-anchor="middle" font-family="Arial,sans-serif" font-size="34" font-weight="800" fill="#fff">FORCES IN A STEADY CLIMB</text>
<rect x="45" y="150" width="1110" height="510" rx="14" fill="#fff" stroke="#d7e0ea"/>

<line x1="200" y1="585" x2="1010" y2="350" stroke="#d7e0ea" stroke-width="5"/>
<g transform="rotate(-16 600 455)" stroke="#06111f" fill="none"><path d="M430 455 L520 425 L710 425 L820 455 L710 480 L510 480 Z" stroke-width="6"/></g>
<circle cx="610" cy="455" r="9" fill="#06111f"/>
<line x1="610" y1="455" x2="900" y2="370" stroke="#f4b400" stroke-width="9" marker-end="url(#arrG)"/><text x="950" y="350" font-family="Arial" font-size="21" font-weight="800" fill="#06111f">THRUST</text>
<line x1="610" y1="455" x2="345" y2="532" stroke="#1f4e79" stroke-width="9" marker-end="url(#arrB)"/><text x="230" y="560" font-family="Arial" font-size="21" font-weight="800" fill="#1f4e79">DRAG</text>
<line x1="610" y1="455" x2="535" y2="200" stroke="#f4b400" stroke-width="9" marker-end="url(#arrG)"/><text x="470" y="190" font-family="Arial" font-size="21" font-weight="800" fill="#06111f">LIFT</text>
<line x1="610" y1="455" x2="610" y2="615" stroke="#64748b" stroke-width="9" marker-end="url(#arrS)"/><text x="650" y="630" font-family="Arial" font-size="21" font-weight="800" fill="#64748b">WEIGHT</text>

<text x="600" y="690" text-anchor="middle" font-family="Arial,sans-serif" font-size="18" fill="#64748b">In the question-bank treatment of a steady climb: thrust is greater than drag and lift is less than weight.</text>
</svg>