<svg xmlns="http://www.w3.org/2000/svg" viewBox="0 0 1200 680" width="1200" height="680" role="img" aria-label="TAKE-OFF SWING: CLOCKWISE PROPELLER">
<defs>
  <marker id="aDark" markerUnits="userSpaceOnUse" markerWidth="16" markerHeight="16" refX="13" refY="8" orient="auto"><path d="M0,1 L15,8 L0,15 z" fill="#101827"/></marker>
  <marker id="aBlue" markerUnits="userSpaceOnUse" markerWidth="18" markerHeight="18" refX="15" refY="9" orient="auto"><path d="M0,1 L17,9 L0,17 z" fill="#1e88e5"/></marker>
  <marker id="aRed" markerUnits="userSpaceOnUse" markerWidth="20" markerHeight="20" refX="17" refY="10" orient="auto"><path d="M0,1 L19,10 L0,19 z" fill="#dc2626"/></marker>
  <marker id="aRedS" markerUnits="userSpaceOnUse" markerWidth="12" markerHeight="12" refX="10" refY="6" orient="auto"><path d="M0,0.5 L11,6 L0,11.5 z" fill="#dc2626"/></marker>
</defs>
<rect width="1200" height="680" fill="#ffffff"/>
<rect width="1200" height="112" fill="#06111f"/>
<text x="600" y="34" text-anchor="middle" font-family="Arial,Helvetica,sans-serif" font-size="17" font-weight="700" letter-spacing="3.2" fill="#f4b400">PILOTVAULT AIRCRAFT TECHNICAL &amp; GENERAL</text>
<text x="600" y="79" text-anchor="middle" font-family="Arial,Helvetica,sans-serif" font-size="34" font-weight="800" fill="#ffffff">TAKE-OFF SWING: CLOCKWISE PROPELLER</text>
<rect x="0" y="108" width="1200" height="4" fill="#f4b400"/>
<rect x="28" y="130" width="1144" height="470" rx="10" fill="#ffffff" stroke="#d7e0ea" stroke-width="2"/>
<rect x="40" y="142" width="710" height="444" rx="12" fill="#f8fafc" stroke="#cbd5e1" stroke-width="2"/>
<text x="60.0" y="172.0" text-anchor="start" font-family="Arial,Helvetica,sans-serif" font-size="14" font-weight="800" fill="#101827">VIEW FROM ABOVE: TRICYCLE, PROPELLER CLOCKWISE FROM COCKPIT</text>
<path d="M 207.5,375.0 L 582.5,375.0 L 582.5,417.5 L 207.5,417.5 Z" fill="#dfe5ec" stroke="#101827" stroke-width="3" stroke-linejoin="round"/>
<path d="M 326.2,537.5 L 463.8,537.5 L 463.8,562.5 L 326.2,562.5 Z" fill="#dfe5ec" stroke="#101827" stroke-width="3" stroke-linejoin="round"/>
<path d="M 395.0 275.0 C 420.0 280.0 420.0 340.0 415.0 415.0 L 402.5 565.0 L 387.5 565.0 L 375.0 415.0 C 370.0 340.0 370.0 280.0 395.0 275.0 Z" fill="#dfe5ec" stroke="#101827" stroke-width="3"/>
<line x1="355.0" y1="271.2" x2="435.0" y2="271.2" stroke="#64748b" stroke-width="5" stroke-linecap="round"/>
<path d="M 395.0,280.0 L 401.1,284.6 L 406.9,289.2 L 412.3,293.7 L 417.1,298.3 L 421.1,302.9 L 424.2,307.5 L 426.3,312.0 L 427.4,316.6 L 427.4,321.2 L 426.3,325.8 L 424.3,330.3 L 421.3,334.9 L 417.5,339.5 L 413.0,344.1 L 408.0,348.6 L 402.6,353.2 L 397.0,357.8 L 391.4,362.4 L 386.0,366.9 L 380.9,371.5 L 376.4,376.1 L 372.5,380.7 L 369.4,385.3 L 367.1,389.8 L 365.8,394.4 L 365.5,399.0 L 366.1,403.6 L 367.7,408.1 L 370.1,412.7 L 373.3,417.3 L 377.2,421.9 L 381.6,426.4 L 386.4,431.0 L 391.4,435.6 L 396.5,440.2 L 401.4,444.7 L 406.1,449.3 L 410.4,453.9 L 414.1,458.5 L 417.2,463.1 L 419.4,467.6 L 420.9,472.2 L 421.5,476.8 L 421.2,481.4 L 420.1,485.9 L 418.2,490.5 L 415.5,495.1 L 412.2,499.7 L 408.4,504.2 L 404.2,508.8 L 399.8,513.4 L 395.3,518.0 L 390.8,522.5 L 386.5,527.1 L 382.6,531.7 L 379.1,536.3 L 376.2,540.8 L 373.9,545.4 L 372.4,550.0" fill="none" stroke="#1e88e5" stroke-width="3.5" stroke-linecap="round" stroke-linejoin="round"/>
<line x1="325.0" y1="524.0" x2="387.0" y2="544.0" stroke="#1e88e5" stroke-width="4" stroke-linecap="round" marker-end="url(#aBlue)"/>
<text x="319.0" y="516.0" text-anchor="end" font-family="Arial,Helvetica,sans-serif" font-size="13" font-weight="800" fill="#1e88e5">SLIPSTREAM HITS</text>
<text x="319.0" y="532.0" text-anchor="end" font-family="Arial,Helvetica,sans-serif" font-size="13" font-weight="800" fill="#1e88e5">LEFT SIDE OF FIN</text>
<path d="M 439.0,261.0 Q 395.0,229.0 347.0,261.0" fill="none" stroke="#b7860b" stroke-width="6" marker-end="url(#aDark)"/>
<text x="335.0" y="245.0" text-anchor="end" font-family="Arial,Helvetica,sans-serif" font-size="17" font-weight="800" fill="#b7860b">NOSE YAWS LEFT</text>
<rect x="339.0" y="420.5" width="12" height="24" rx="3" fill="#dc2626"/>
<rect x="439.0" y="420.5" width="12" height="24" rx="3" fill="#101827"/>
<rect x="389.0" y="295.5" width="12" height="24" rx="3" fill="#101827"/>
<text x="230.0" y="452.0" text-anchor="middle" font-family="Arial,Helvetica,sans-serif" font-size="13" font-weight="800" fill="#dc2626">MORE LOAD ON</text>
<text x="230.0" y="468.0" text-anchor="middle" font-family="Arial,Helvetica,sans-serif" font-size="13" font-weight="800" fill="#dc2626">LEFT WHEEL</text>
<line x1="262.0" y1="442.0" x2="337.0" y2="428.5" stroke="#dc2626" stroke-width="2" stroke-linecap="round" marker-end="url(#aRedS)"/>
<line x1="532.5" y1="370.0" x2="532.5" y2="310.0" stroke="#dc2626" stroke-width="5" stroke-linecap="round" marker-end="url(#aRed)"/>
<text x="544.5" y="330.0" text-anchor="start" font-family="Arial,Helvetica,sans-serif" font-size="13" font-weight="800" fill="#dc2626">MORE THRUST ON THE</text>
<text x="544.5" y="346.0" text-anchor="start" font-family="Arial,Helvetica,sans-serif" font-size="13" font-weight="800" fill="#dc2626">RIGHT (DOWN-GOING BLADE)</text>
<rect x="770" y="146" width="378" height="138" rx="12" fill="#f8fafc" stroke="#cbd5e1" stroke-width="2"/>
<rect x="770" y="146" width="8" height="138" rx="4" fill="#f4b400"/>
<text x="796.0" y="180.0" text-anchor="start" font-family="Arial,Helvetica,sans-serif" font-size="19" font-weight="800" fill="#101827">SPIRAL SLIPSTREAM</text>
<text x="796.0" y="212.0" text-anchor="start" font-family="Arial,Helvetica,sans-serif" font-size="17" font-weight="400" fill="#334155">Strikes the left side of the</text>
<text x="796.0" y="237.0" text-anchor="start" font-family="Arial,Helvetica,sans-serif" font-size="17" font-weight="400" fill="#334155">fin, pushing the tail right</text>
<text x="796.0" y="262.0" text-anchor="start" font-family="Arial,Helvetica,sans-serif" font-size="17" font-weight="400" fill="#334155">and the nose left.</text>
<rect x="770" y="296" width="378" height="138" rx="12" fill="#f8fafc" stroke="#cbd5e1" stroke-width="2"/>
<rect x="770" y="296" width="8" height="138" rx="4" fill="#f4b400"/>
<text x="796.0" y="330.0" text-anchor="start" font-family="Arial,Helvetica,sans-serif" font-size="19" font-weight="800" fill="#101827">TORQUE REACTION</text>
<text x="796.0" y="362.0" text-anchor="start" font-family="Arial,Helvetica,sans-serif" font-size="17" font-weight="400" fill="#334155">Presses the left wheel down:</text>
<text x="796.0" y="387.0" text-anchor="start" font-family="Arial,Helvetica,sans-serif" font-size="17" font-weight="400" fill="#334155">more friction on the left.</text>
<rect x="770" y="446" width="378" height="138" rx="12" fill="#f8fafc" stroke="#cbd5e1" stroke-width="2"/>
<rect x="770" y="446" width="8" height="138" rx="4" fill="#f4b400"/>
<text x="796.0" y="480.0" text-anchor="start" font-family="Arial,Helvetica,sans-serif" font-size="19" font-weight="800" fill="#101827">ASYMMETRIC BLADE EFFECT</text>
<text x="796.0" y="512.0" text-anchor="start" font-family="Arial,Helvetica,sans-serif" font-size="17" font-weight="400" fill="#334155">The down-going (right) blade</text>
<text x="796.0" y="537.0" text-anchor="start" font-family="Arial,Helvetica,sans-serif" font-size="17" font-weight="400" fill="#334155">gives more thrust at high</text>
<text x="796.0" y="562.0" text-anchor="start" font-family="Arial,Helvetica,sans-serif" font-size="17" font-weight="400" fill="#334155">power and angle of attack.</text>
<text x="600" y="642" text-anchor="middle" font-family="Arial,Helvetica,sans-serif" font-size="19" font-weight="700" fill="#101827">With a clockwise propeller (from the cockpit) the aeroplane tends to yaw left on take-off.</text>
</svg>
